<svg width="30" height="30" viewBox="0 0 30 30" fill="none" xmlns="http://www.w3.org/2000/svg">
<path d="M23.2342 6.91935C22.7049 6.91935 22.1972 6.70955 21.8223 6.33592L15.8077 0.341362C15.5922 0.124093 15.2993 0.00130889 14.9934 1.04039e-05C14.6874 -0.00128808 14.3934 0.119006 14.1762 0.334438L14.1692 0.341362L8.17811 6.33345C7.80303 6.70859 7.29427 6.91935 6.76379 6.91935H1.15385C0.847827 6.91935 0.554342 7.04093 0.337954 7.25736C0.121566 7.47378 0 7.76731 0 8.07338V28.846C0 29.152 0.121566 29.4456 0.337954 29.662C0.554342 29.8784 0.847827 30 1.15385 30H28.8462C29.1522 30 29.4457 29.8784 29.662 29.662C29.8784 29.4456 30 29.152 30 28.846V8.07338C30 7.76731 29.8784 7.47378 29.662 7.25736C29.4457 7.04093 29.1522 6.91935 28.8462 6.91935H23.2342ZM13.7899 3.99822C14.4582 3.32982 15.5418 3.32982 16.2101 3.99822C17.288 5.07626 16.5245 6.91935 15 6.91935C13.4755 6.91935 12.712 5.07626 13.7899 3.99822ZM27.6923 25.6919C27.6923 26.7965 26.7969 27.6919 25.6923 27.6919H4.30769C3.20312 27.6919 2.30769 26.7965 2.30769 25.6919V11.2274C2.30769 10.1228 3.20312 9.22741 4.30769 9.22741H25.6923C26.7969 9.22741 27.6923 10.1228 27.6923 11.2274V25.6919ZM9.23077 16.1516C8.61873 16.1516 8.03176 15.9084 7.59898 15.4756C7.16621 15.0427 6.92308 14.4557 6.92308 13.8435C6.92308 13.2314 7.16621 12.6443 7.59898 12.2115C8.03176 11.7786 8.61873 11.5355 9.23077 11.5355C9.84281 11.5355 10.4298 11.7786 10.8626 12.2115C11.2953 12.6443 11.5385 13.2314 11.5385 13.8435C11.5385 14.4557 11.2953 15.0427 10.8626 15.4756C10.4298 15.9084 9.84281 16.1516 9.23077 16.1516ZM23.9377 22.4896C24.6025 23.8194 23.6355 25.3839 22.1488 25.3839H11.3128C9.82605 25.3839 8.85905 23.8194 9.52384 22.4896L10.0962 21.3448C10.6904 20.1561 12.3866 20.1561 12.9808 21.3448C13.575 22.5334 15.2712 22.5334 15.8654 21.3448L17.8265 17.4219C18.5635 15.9477 20.6673 15.9477 21.4043 17.4219L23.9377 22.4896Z" fill="white"/>
</svg>
